# xmcd
#
# Track frame offsets: 
#        150
#        12547
#        23492
#        38775
#        51475
#        64060
#        77777
#        89215
#        102780
#        116125
#        127907
#        140047
#        152762
#        164965
#        180172
#        193665
#        209437
#        220570
#        231775
#        245125
#        259052
#        270015
#        285322
#
# Disc length: 3975 seconds
#
# Revision: 3
# Processed by: cddbd v1.5.2PL0 Copyright (c) Steve Scherf et al.
# Submitted via: ExactAudioCopy v0.95b4
#
DISCID=4b0f8517
DTITLE=Conway Twitty - The Conway Twitty Collection [Disc 2]
DYEAR=1994
DGENRE=Country
TTITLE0=I Wonder What She'll Think About Me Leaving
TTITLE1=Lead Me On (with Loretta Lynn)
TTITLE2=(Lost Her Love) On Our Last Date
TTITLE3=I Can't Stop Loving You
TTITLE4=She Needs Someone to Hold Her (When She Cries)
TTITLE5=Baby's Gone
TTITLE6=Louisiana Woman, Mississippi Man (with Loretta Lynn)
TTITLE7=You've Never Been This Far Before
TTITLE8=There's a Honky Tonk Angel (Who'll Take Me Back In)
TTITLE9=I'm Not Through Loving You Yet
TTITLE10=As Soon As I Hang Up the Phone (with Loretta Lynn)
TTITLE11=I See the Want to in Your Eyes
TTITLE12=Linda on My Mind
TTITLE13=Touch the Hand
TTITLE14=Feelins' (with Loretta Lynn)
TTITLE15=I Just Had You on My Mind
TTITLE16=Hello Darlin' (in Russian)
TTITLE17=This Time I've Hurt Her More Than She Loves Me
TTITLE18=After All the Good Is Gone
TTITLE19=The Games That Daddies Play
TTITLE20=(I Can't Believe) She Gives It All to Me
TTITLE21=Play Guitar Play
TTITLE22=No Relief in Sight
EXTD=
EXTT0=
EXTT1=
EXTT2=
EXTT3=
EXTT4=
EXTT5=
EXTT6=
EXTT7=
EXTT8=
EXTT9=
EXTT10=
EXTT11=
EXTT12=
EXTT13=
EXTT14=
EXTT15=
EXTT16=
EXTT17=
EXTT18=
EXTT19=
EXTT20=
EXTT21=
EXTT22=
PLAYORDER=
